%TF.GenerationSoftware,KiCad,Pcbnew,(5.1.6)-1*%
%TF.CreationDate,2020-07-04T13:17:01+02:00*%
%TF.ProjectId,Grove_step_up,47726f76-655f-4737-9465-705f75702e6b,rev?*%
%TF.SameCoordinates,Original*%
%TF.FileFunction,Legend,Top*%
%TF.FilePolarity,Positive*%
%FSLAX46Y46*%
G04 Gerber Fmt 4.6, Leading zero omitted, Abs format (unit mm)*
G04 Created by KiCad (PCBNEW (5.1.6)-1) date 2020-07-04 13:17:01*
%MOMM*%
%LPD*%
G01*
G04 APERTURE LIST*
%ADD10C,0.120000*%
%ADD11C,0.150000*%
G04 APERTURE END LIST*
D10*
%TO.C,U1*%
X118480000Y-80350000D02*
X120930000Y-80350000D01*
X120280000Y-77130000D02*
X118480000Y-77130000D01*
%TO.C,R4*%
X125274000Y-78813922D02*
X125274000Y-79331078D01*
X126694000Y-78813922D02*
X126694000Y-79331078D01*
%TO.C,R3*%
X116161078Y-81840000D02*
X115643922Y-81840000D01*
X116161078Y-83260000D02*
X115643922Y-83260000D01*
%TO.C,R2*%
X123900000Y-79301078D02*
X123900000Y-78783922D01*
X122480000Y-79301078D02*
X122480000Y-78783922D01*
%TO.C,R1*%
X116280000Y-79331078D02*
X116280000Y-78813922D01*
X114860000Y-79331078D02*
X114860000Y-78813922D01*
%TO.C,L1*%
X120740000Y-74392064D02*
X120740000Y-73187936D01*
X118020000Y-74392064D02*
X118020000Y-73187936D01*
%TO.C,J2*%
X134055000Y-84190000D02*
X134055000Y-81690000D01*
X131555000Y-84190000D02*
X134055000Y-84190000D01*
X132255000Y-72170000D02*
X133755000Y-72170000D01*
X132255000Y-71170000D02*
X132255000Y-72170000D01*
X132255000Y-82890000D02*
X133755000Y-82890000D01*
X132255000Y-83890000D02*
X132255000Y-82890000D01*
X131445000Y-71670000D02*
X131445000Y-71170000D01*
X130235000Y-71670000D02*
X131445000Y-71670000D01*
X130235000Y-83390000D02*
X130235000Y-71670000D01*
X131445000Y-83390000D02*
X130235000Y-83390000D01*
X131445000Y-83890000D02*
X131445000Y-83390000D01*
X129735000Y-71170000D02*
X129735000Y-83890000D01*
X133755000Y-71170000D02*
X129735000Y-71170000D01*
X133755000Y-83890000D02*
X133755000Y-71170000D01*
X129735000Y-83890000D02*
X133755000Y-83890000D01*
%TO.C,J1*%
X111830000Y-84190000D02*
X111830000Y-81690000D01*
X109330000Y-84190000D02*
X111830000Y-84190000D01*
X110030000Y-72170000D02*
X111530000Y-72170000D01*
X110030000Y-71170000D02*
X110030000Y-72170000D01*
X110030000Y-82890000D02*
X111530000Y-82890000D01*
X110030000Y-83890000D02*
X110030000Y-82890000D01*
X109220000Y-71670000D02*
X109220000Y-71170000D01*
X108010000Y-71670000D02*
X109220000Y-71670000D01*
X108010000Y-83390000D02*
X108010000Y-71670000D01*
X109220000Y-83390000D02*
X108010000Y-83390000D01*
X109220000Y-83890000D02*
X109220000Y-83390000D01*
X107510000Y-71170000D02*
X107510000Y-83890000D01*
X111530000Y-71170000D02*
X107510000Y-71170000D01*
X111530000Y-83890000D02*
X111530000Y-71170000D01*
X107510000Y-83890000D02*
X111530000Y-83890000D01*
%TO.C,D2*%
X118662500Y-83510000D02*
X121347500Y-83510000D01*
X118662500Y-81590000D02*
X118662500Y-83510000D01*
X121347500Y-81590000D02*
X118662500Y-81590000D01*
%TO.C,D1*%
X122190000Y-76290000D02*
X122190000Y-72390000D01*
X124190000Y-76290000D02*
X124190000Y-72390000D01*
X122190000Y-76290000D02*
X124190000Y-76290000D01*
%TO.C,C2*%
X126694000Y-74348078D02*
X126694000Y-73830922D01*
X125274000Y-74348078D02*
X125274000Y-73830922D01*
%TO.C,C1*%
X114860000Y-75003922D02*
X114860000Y-75521078D01*
X116280000Y-75003922D02*
X116280000Y-75521078D01*
%TO.C,U1*%
D11*
X116840095Y-80478380D02*
X116840095Y-81287904D01*
X116887714Y-81383142D01*
X116935333Y-81430761D01*
X117030571Y-81478380D01*
X117221047Y-81478380D01*
X117316285Y-81430761D01*
X117363904Y-81383142D01*
X117411523Y-81287904D01*
X117411523Y-80478380D01*
X118411523Y-81478380D02*
X117840095Y-81478380D01*
X118125809Y-81478380D02*
X118125809Y-80478380D01*
X118030571Y-80621238D01*
X117935333Y-80716476D01*
X117840095Y-80764095D01*
%TO.C,R4*%
X128103333Y-79446380D02*
X127770000Y-78970190D01*
X127531904Y-79446380D02*
X127531904Y-78446380D01*
X127912857Y-78446380D01*
X128008095Y-78494000D01*
X128055714Y-78541619D01*
X128103333Y-78636857D01*
X128103333Y-78779714D01*
X128055714Y-78874952D01*
X128008095Y-78922571D01*
X127912857Y-78970190D01*
X127531904Y-78970190D01*
X128960476Y-78779714D02*
X128960476Y-79446380D01*
X128722380Y-78398761D02*
X128484285Y-79113047D01*
X129103333Y-79113047D01*
%TO.C,R3*%
X112863333Y-83002380D02*
X112530000Y-82526190D01*
X112291904Y-83002380D02*
X112291904Y-82002380D01*
X112672857Y-82002380D01*
X112768095Y-82050000D01*
X112815714Y-82097619D01*
X112863333Y-82192857D01*
X112863333Y-82335714D01*
X112815714Y-82430952D01*
X112768095Y-82478571D01*
X112672857Y-82526190D01*
X112291904Y-82526190D01*
X113196666Y-82002380D02*
X113815714Y-82002380D01*
X113482380Y-82383333D01*
X113625238Y-82383333D01*
X113720476Y-82430952D01*
X113768095Y-82478571D01*
X113815714Y-82573809D01*
X113815714Y-82811904D01*
X113768095Y-82907142D01*
X113720476Y-82954761D01*
X113625238Y-83002380D01*
X113339523Y-83002380D01*
X113244285Y-82954761D01*
X113196666Y-82907142D01*
%TO.C,R2*%
X123023333Y-81986380D02*
X122690000Y-81510190D01*
X122451904Y-81986380D02*
X122451904Y-80986380D01*
X122832857Y-80986380D01*
X122928095Y-81034000D01*
X122975714Y-81081619D01*
X123023333Y-81176857D01*
X123023333Y-81319714D01*
X122975714Y-81414952D01*
X122928095Y-81462571D01*
X122832857Y-81510190D01*
X122451904Y-81510190D01*
X123404285Y-81081619D02*
X123451904Y-81034000D01*
X123547142Y-80986380D01*
X123785238Y-80986380D01*
X123880476Y-81034000D01*
X123928095Y-81081619D01*
X123975714Y-81176857D01*
X123975714Y-81272095D01*
X123928095Y-81414952D01*
X123356666Y-81986380D01*
X123975714Y-81986380D01*
%TO.C,R1*%
X113117333Y-79524880D02*
X112784000Y-79048690D01*
X112545904Y-79524880D02*
X112545904Y-78524880D01*
X112926857Y-78524880D01*
X113022095Y-78572500D01*
X113069714Y-78620119D01*
X113117333Y-78715357D01*
X113117333Y-78858214D01*
X113069714Y-78953452D01*
X113022095Y-79001071D01*
X112926857Y-79048690D01*
X112545904Y-79048690D01*
X114069714Y-79524880D02*
X113498285Y-79524880D01*
X113784000Y-79524880D02*
X113784000Y-78524880D01*
X113688761Y-78667738D01*
X113593523Y-78762976D01*
X113498285Y-78810595D01*
%TO.C,L1*%
X116419333Y-72080380D02*
X115943142Y-72080380D01*
X115943142Y-71080380D01*
X117276476Y-72080380D02*
X116705047Y-72080380D01*
X116990761Y-72080380D02*
X116990761Y-71080380D01*
X116895523Y-71223238D01*
X116800285Y-71318476D01*
X116705047Y-71366095D01*
%TO.C,J2*%
X127936666Y-71334380D02*
X127936666Y-72048666D01*
X127889047Y-72191523D01*
X127793809Y-72286761D01*
X127650952Y-72334380D01*
X127555714Y-72334380D01*
X128365238Y-71429619D02*
X128412857Y-71382000D01*
X128508095Y-71334380D01*
X128746190Y-71334380D01*
X128841428Y-71382000D01*
X128889047Y-71429619D01*
X128936666Y-71524857D01*
X128936666Y-71620095D01*
X128889047Y-71762952D01*
X128317619Y-72334380D01*
X128936666Y-72334380D01*
%TO.C,J1*%
X112696666Y-71080380D02*
X112696666Y-71794666D01*
X112649047Y-71937523D01*
X112553809Y-72032761D01*
X112410952Y-72080380D01*
X112315714Y-72080380D01*
X113696666Y-72080380D02*
X113125238Y-72080380D01*
X113410952Y-72080380D02*
X113410952Y-71080380D01*
X113315714Y-71223238D01*
X113220476Y-71318476D01*
X113125238Y-71366095D01*
%TO.C,D2*%
X122451904Y-83510380D02*
X122451904Y-82510380D01*
X122690000Y-82510380D01*
X122832857Y-82558000D01*
X122928095Y-82653238D01*
X122975714Y-82748476D01*
X123023333Y-82938952D01*
X123023333Y-83081809D01*
X122975714Y-83272285D01*
X122928095Y-83367523D01*
X122832857Y-83462761D01*
X122690000Y-83510380D01*
X122451904Y-83510380D01*
X123404285Y-82605619D02*
X123451904Y-82558000D01*
X123547142Y-82510380D01*
X123785238Y-82510380D01*
X123880476Y-82558000D01*
X123928095Y-82605619D01*
X123975714Y-82700857D01*
X123975714Y-82796095D01*
X123928095Y-82938952D01*
X123356666Y-83510380D01*
X123975714Y-83510380D01*
%TO.C,D1*%
X122451904Y-71318380D02*
X122451904Y-70318380D01*
X122690000Y-70318380D01*
X122832857Y-70366000D01*
X122928095Y-70461238D01*
X122975714Y-70556476D01*
X123023333Y-70746952D01*
X123023333Y-70889809D01*
X122975714Y-71080285D01*
X122928095Y-71175523D01*
X122832857Y-71270761D01*
X122690000Y-71318380D01*
X122451904Y-71318380D01*
X123975714Y-71318380D02*
X123404285Y-71318380D01*
X123690000Y-71318380D02*
X123690000Y-70318380D01*
X123594761Y-70461238D01*
X123499523Y-70556476D01*
X123404285Y-70604095D01*
%TO.C,C2*%
X128103333Y-74779142D02*
X128055714Y-74826761D01*
X127912857Y-74874380D01*
X127817619Y-74874380D01*
X127674761Y-74826761D01*
X127579523Y-74731523D01*
X127531904Y-74636285D01*
X127484285Y-74445809D01*
X127484285Y-74302952D01*
X127531904Y-74112476D01*
X127579523Y-74017238D01*
X127674761Y-73922000D01*
X127817619Y-73874380D01*
X127912857Y-73874380D01*
X128055714Y-73922000D01*
X128103333Y-73969619D01*
X128484285Y-73969619D02*
X128531904Y-73922000D01*
X128627142Y-73874380D01*
X128865238Y-73874380D01*
X128960476Y-73922000D01*
X129008095Y-73969619D01*
X129055714Y-74064857D01*
X129055714Y-74160095D01*
X129008095Y-74302952D01*
X128436666Y-74874380D01*
X129055714Y-74874380D01*
%TO.C,C1*%
X113117333Y-75541142D02*
X113069714Y-75588761D01*
X112926857Y-75636380D01*
X112831619Y-75636380D01*
X112688761Y-75588761D01*
X112593523Y-75493523D01*
X112545904Y-75398285D01*
X112498285Y-75207809D01*
X112498285Y-75064952D01*
X112545904Y-74874476D01*
X112593523Y-74779238D01*
X112688761Y-74684000D01*
X112831619Y-74636380D01*
X112926857Y-74636380D01*
X113069714Y-74684000D01*
X113117333Y-74731619D01*
X114069714Y-75636380D02*
X113498285Y-75636380D01*
X113784000Y-75636380D02*
X113784000Y-74636380D01*
X113688761Y-74779238D01*
X113593523Y-74874476D01*
X113498285Y-74922095D01*
%TD*%
M02*
