%TF.GenerationSoftware,KiCad,Pcbnew,(5.1.6)-1*%
%TF.CreationDate,2020-07-04T13:17:01+02:00*%
%TF.ProjectId,Grove_step_up,47726f76-655f-4737-9465-705f75702e6b,rev?*%
%TF.SameCoordinates,Original*%
%TF.FileFunction,Copper,L2,Bot*%
%TF.FilePolarity,Positive*%
%FSLAX46Y46*%
G04 Gerber Fmt 4.6, Leading zero omitted, Abs format (unit mm)*
G04 Created by KiCad (PCBNEW (5.1.6)-1) date 2020-07-04 13:17:01*
%MOMM*%
%LPD*%
G01*
G04 APERTURE LIST*
%TA.AperFunction,ComponentPad*%
%ADD10O,1.950000X1.700000*%
%TD*%
%TA.AperFunction,ViaPad*%
%ADD11C,0.800000*%
%TD*%
%TA.AperFunction,Conductor*%
%ADD12C,0.254000*%
%TD*%
G04 APERTURE END LIST*
D10*
%TO.P,J2,4*%
%TO.N,GND*%
X131445000Y-73780000D03*
%TO.P,J2,3*%
%TO.N,+5V*%
X131445000Y-76280000D03*
%TO.P,J2,2*%
%TO.N,Net-(J1-Pad2)*%
X131445000Y-78780000D03*
%TO.P,J2,1*%
%TO.N,Net-(J1-Pad1)*%
%TA.AperFunction,ComponentPad*%
G36*
G01*
X132170000Y-82130000D02*
X130720000Y-82130000D01*
G75*
G02*
X130470000Y-81880000I0J250000D01*
G01*
X130470000Y-80680000D01*
G75*
G02*
X130720000Y-80430000I250000J0D01*
G01*
X132170000Y-80430000D01*
G75*
G02*
X132420000Y-80680000I0J-250000D01*
G01*
X132420000Y-81880000D01*
G75*
G02*
X132170000Y-82130000I-250000J0D01*
G01*
G37*
%TD.AperFunction*%
%TD*%
%TO.P,J1,4*%
%TO.N,GND*%
X109220000Y-73780000D03*
%TO.P,J1,3*%
%TO.N,+3V3*%
X109220000Y-76280000D03*
%TO.P,J1,2*%
%TO.N,Net-(J1-Pad2)*%
X109220000Y-78780000D03*
%TO.P,J1,1*%
%TO.N,Net-(J1-Pad1)*%
%TA.AperFunction,ComponentPad*%
G36*
G01*
X109945000Y-82130000D02*
X108495000Y-82130000D01*
G75*
G02*
X108245000Y-81880000I0J250000D01*
G01*
X108245000Y-80680000D01*
G75*
G02*
X108495000Y-80430000I250000J0D01*
G01*
X109945000Y-80430000D01*
G75*
G02*
X110195000Y-80680000I0J-250000D01*
G01*
X110195000Y-81880000D01*
G75*
G02*
X109945000Y-82130000I-250000J0D01*
G01*
G37*
%TD.AperFunction*%
%TD*%
D11*
%TO.N,GND*%
X119380000Y-82550000D03*
X115062000Y-82550000D03*
X115570000Y-76200000D03*
%TD*%
D12*
%TO.N,GND*%
G36*
X133985000Y-84963000D02*
G01*
X107086000Y-84963000D01*
X107086000Y-76280000D01*
X107602815Y-76280000D01*
X107631487Y-76571111D01*
X107716401Y-76851034D01*
X107854294Y-77109014D01*
X108039866Y-77335134D01*
X108265986Y-77520706D01*
X108283374Y-77530000D01*
X108265986Y-77539294D01*
X108039866Y-77724866D01*
X107854294Y-77950986D01*
X107716401Y-78208966D01*
X107631487Y-78488889D01*
X107602815Y-78780000D01*
X107631487Y-79071111D01*
X107716401Y-79351034D01*
X107854294Y-79609014D01*
X108039866Y-79835134D01*
X108103337Y-79887223D01*
X108001614Y-79941595D01*
X107867038Y-80052038D01*
X107756595Y-80186614D01*
X107674528Y-80340150D01*
X107623992Y-80506746D01*
X107606928Y-80680000D01*
X107606928Y-81880000D01*
X107623992Y-82053254D01*
X107674528Y-82219850D01*
X107756595Y-82373386D01*
X107867038Y-82507962D01*
X108001614Y-82618405D01*
X108155150Y-82700472D01*
X108321746Y-82751008D01*
X108495000Y-82768072D01*
X109945000Y-82768072D01*
X110118254Y-82751008D01*
X110284850Y-82700472D01*
X110438386Y-82618405D01*
X110572962Y-82507962D01*
X110683405Y-82373386D01*
X110765472Y-82219850D01*
X110816008Y-82053254D01*
X110833072Y-81880000D01*
X110833072Y-80680000D01*
X110816008Y-80506746D01*
X110765472Y-80340150D01*
X110683405Y-80186614D01*
X110572962Y-80052038D01*
X110438386Y-79941595D01*
X110336663Y-79887223D01*
X110400134Y-79835134D01*
X110585706Y-79609014D01*
X110723599Y-79351034D01*
X110808513Y-79071111D01*
X110837185Y-78780000D01*
X110808513Y-78488889D01*
X110723599Y-78208966D01*
X110585706Y-77950986D01*
X110400134Y-77724866D01*
X110174014Y-77539294D01*
X110156626Y-77530000D01*
X110174014Y-77520706D01*
X110400134Y-77335134D01*
X110585706Y-77109014D01*
X110723599Y-76851034D01*
X110808513Y-76571111D01*
X110837185Y-76280000D01*
X129827815Y-76280000D01*
X129856487Y-76571111D01*
X129941401Y-76851034D01*
X130079294Y-77109014D01*
X130264866Y-77335134D01*
X130490986Y-77520706D01*
X130508374Y-77530000D01*
X130490986Y-77539294D01*
X130264866Y-77724866D01*
X130079294Y-77950986D01*
X129941401Y-78208966D01*
X129856487Y-78488889D01*
X129827815Y-78780000D01*
X129856487Y-79071111D01*
X129941401Y-79351034D01*
X130079294Y-79609014D01*
X130264866Y-79835134D01*
X130328337Y-79887223D01*
X130226614Y-79941595D01*
X130092038Y-80052038D01*
X129981595Y-80186614D01*
X129899528Y-80340150D01*
X129848992Y-80506746D01*
X129831928Y-80680000D01*
X129831928Y-81880000D01*
X129848992Y-82053254D01*
X129899528Y-82219850D01*
X129981595Y-82373386D01*
X130092038Y-82507962D01*
X130226614Y-82618405D01*
X130380150Y-82700472D01*
X130546746Y-82751008D01*
X130720000Y-82768072D01*
X132170000Y-82768072D01*
X132343254Y-82751008D01*
X132509850Y-82700472D01*
X132663386Y-82618405D01*
X132797962Y-82507962D01*
X132908405Y-82373386D01*
X132990472Y-82219850D01*
X133041008Y-82053254D01*
X133058072Y-81880000D01*
X133058072Y-80680000D01*
X133041008Y-80506746D01*
X132990472Y-80340150D01*
X132908405Y-80186614D01*
X132797962Y-80052038D01*
X132663386Y-79941595D01*
X132561663Y-79887223D01*
X132625134Y-79835134D01*
X132810706Y-79609014D01*
X132948599Y-79351034D01*
X133033513Y-79071111D01*
X133062185Y-78780000D01*
X133033513Y-78488889D01*
X132948599Y-78208966D01*
X132810706Y-77950986D01*
X132625134Y-77724866D01*
X132399014Y-77539294D01*
X132381626Y-77530000D01*
X132399014Y-77520706D01*
X132625134Y-77335134D01*
X132810706Y-77109014D01*
X132948599Y-76851034D01*
X133033513Y-76571111D01*
X133062185Y-76280000D01*
X133033513Y-75988889D01*
X132948599Y-75708966D01*
X132810706Y-75450986D01*
X132625134Y-75224866D01*
X132399014Y-75039294D01*
X132373278Y-75025538D01*
X132579429Y-74869049D01*
X132772496Y-74651193D01*
X132919352Y-74399858D01*
X133011476Y-74136890D01*
X132890155Y-73907000D01*
X131572000Y-73907000D01*
X131572000Y-73927000D01*
X131318000Y-73927000D01*
X131318000Y-73907000D01*
X129999845Y-73907000D01*
X129878524Y-74136890D01*
X129970648Y-74399858D01*
X130117504Y-74651193D01*
X130310571Y-74869049D01*
X130516722Y-75025538D01*
X130490986Y-75039294D01*
X130264866Y-75224866D01*
X130079294Y-75450986D01*
X129941401Y-75708966D01*
X129856487Y-75988889D01*
X129827815Y-76280000D01*
X110837185Y-76280000D01*
X110808513Y-75988889D01*
X110723599Y-75708966D01*
X110585706Y-75450986D01*
X110400134Y-75224866D01*
X110174014Y-75039294D01*
X110148278Y-75025538D01*
X110354429Y-74869049D01*
X110547496Y-74651193D01*
X110694352Y-74399858D01*
X110786476Y-74136890D01*
X110665155Y-73907000D01*
X109347000Y-73907000D01*
X109347000Y-73927000D01*
X109093000Y-73927000D01*
X109093000Y-73907000D01*
X107774845Y-73907000D01*
X107653524Y-74136890D01*
X107745648Y-74399858D01*
X107892504Y-74651193D01*
X108085571Y-74869049D01*
X108291722Y-75025538D01*
X108265986Y-75039294D01*
X108039866Y-75224866D01*
X107854294Y-75450986D01*
X107716401Y-75708966D01*
X107631487Y-75988889D01*
X107602815Y-76280000D01*
X107086000Y-76280000D01*
X107086000Y-73423110D01*
X107653524Y-73423110D01*
X107774845Y-73653000D01*
X109093000Y-73653000D01*
X109093000Y-72453835D01*
X109347000Y-72453835D01*
X109347000Y-73653000D01*
X110665155Y-73653000D01*
X110786476Y-73423110D01*
X129878524Y-73423110D01*
X129999845Y-73653000D01*
X131318000Y-73653000D01*
X131318000Y-72453835D01*
X131572000Y-72453835D01*
X131572000Y-73653000D01*
X132890155Y-73653000D01*
X133011476Y-73423110D01*
X132919352Y-73160142D01*
X132772496Y-72908807D01*
X132579429Y-72690951D01*
X132347570Y-72514947D01*
X132085830Y-72387558D01*
X131804267Y-72313680D01*
X131572000Y-72453835D01*
X131318000Y-72453835D01*
X131085733Y-72313680D01*
X130804170Y-72387558D01*
X130542430Y-72514947D01*
X130310571Y-72690951D01*
X130117504Y-72908807D01*
X129970648Y-73160142D01*
X129878524Y-73423110D01*
X110786476Y-73423110D01*
X110694352Y-73160142D01*
X110547496Y-72908807D01*
X110354429Y-72690951D01*
X110122570Y-72514947D01*
X109860830Y-72387558D01*
X109579267Y-72313680D01*
X109347000Y-72453835D01*
X109093000Y-72453835D01*
X108860733Y-72313680D01*
X108579170Y-72387558D01*
X108317430Y-72514947D01*
X108085571Y-72690951D01*
X107892504Y-72908807D01*
X107745648Y-73160142D01*
X107653524Y-73423110D01*
X107086000Y-73423110D01*
X107086000Y-70002000D01*
X133985000Y-70002000D01*
X133985000Y-84963000D01*
G37*
X133985000Y-84963000D02*
X107086000Y-84963000D01*
X107086000Y-76280000D01*
X107602815Y-76280000D01*
X107631487Y-76571111D01*
X107716401Y-76851034D01*
X107854294Y-77109014D01*
X108039866Y-77335134D01*
X108265986Y-77520706D01*
X108283374Y-77530000D01*
X108265986Y-77539294D01*
X108039866Y-77724866D01*
X107854294Y-77950986D01*
X107716401Y-78208966D01*
X107631487Y-78488889D01*
X107602815Y-78780000D01*
X107631487Y-79071111D01*
X107716401Y-79351034D01*
X107854294Y-79609014D01*
X108039866Y-79835134D01*
X108103337Y-79887223D01*
X108001614Y-79941595D01*
X107867038Y-80052038D01*
X107756595Y-80186614D01*
X107674528Y-80340150D01*
X107623992Y-80506746D01*
X107606928Y-80680000D01*
X107606928Y-81880000D01*
X107623992Y-82053254D01*
X107674528Y-82219850D01*
X107756595Y-82373386D01*
X107867038Y-82507962D01*
X108001614Y-82618405D01*
X108155150Y-82700472D01*
X108321746Y-82751008D01*
X108495000Y-82768072D01*
X109945000Y-82768072D01*
X110118254Y-82751008D01*
X110284850Y-82700472D01*
X110438386Y-82618405D01*
X110572962Y-82507962D01*
X110683405Y-82373386D01*
X110765472Y-82219850D01*
X110816008Y-82053254D01*
X110833072Y-81880000D01*
X110833072Y-80680000D01*
X110816008Y-80506746D01*
X110765472Y-80340150D01*
X110683405Y-80186614D01*
X110572962Y-80052038D01*
X110438386Y-79941595D01*
X110336663Y-79887223D01*
X110400134Y-79835134D01*
X110585706Y-79609014D01*
X110723599Y-79351034D01*
X110808513Y-79071111D01*
X110837185Y-78780000D01*
X110808513Y-78488889D01*
X110723599Y-78208966D01*
X110585706Y-77950986D01*
X110400134Y-77724866D01*
X110174014Y-77539294D01*
X110156626Y-77530000D01*
X110174014Y-77520706D01*
X110400134Y-77335134D01*
X110585706Y-77109014D01*
X110723599Y-76851034D01*
X110808513Y-76571111D01*
X110837185Y-76280000D01*
X129827815Y-76280000D01*
X129856487Y-76571111D01*
X129941401Y-76851034D01*
X130079294Y-77109014D01*
X130264866Y-77335134D01*
X130490986Y-77520706D01*
X130508374Y-77530000D01*
X130490986Y-77539294D01*
X130264866Y-77724866D01*
X130079294Y-77950986D01*
X129941401Y-78208966D01*
X129856487Y-78488889D01*
X129827815Y-78780000D01*
X129856487Y-79071111D01*
X129941401Y-79351034D01*
X130079294Y-79609014D01*
X130264866Y-79835134D01*
X130328337Y-79887223D01*
X130226614Y-79941595D01*
X130092038Y-80052038D01*
X129981595Y-80186614D01*
X129899528Y-80340150D01*
X129848992Y-80506746D01*
X129831928Y-80680000D01*
X129831928Y-81880000D01*
X129848992Y-82053254D01*
X129899528Y-82219850D01*
X129981595Y-82373386D01*
X130092038Y-82507962D01*
X130226614Y-82618405D01*
X130380150Y-82700472D01*
X130546746Y-82751008D01*
X130720000Y-82768072D01*
X132170000Y-82768072D01*
X132343254Y-82751008D01*
X132509850Y-82700472D01*
X132663386Y-82618405D01*
X132797962Y-82507962D01*
X132908405Y-82373386D01*
X132990472Y-82219850D01*
X133041008Y-82053254D01*
X133058072Y-81880000D01*
X133058072Y-80680000D01*
X133041008Y-80506746D01*
X132990472Y-80340150D01*
X132908405Y-80186614D01*
X132797962Y-80052038D01*
X132663386Y-79941595D01*
X132561663Y-79887223D01*
X132625134Y-79835134D01*
X132810706Y-79609014D01*
X132948599Y-79351034D01*
X133033513Y-79071111D01*
X133062185Y-78780000D01*
X133033513Y-78488889D01*
X132948599Y-78208966D01*
X132810706Y-77950986D01*
X132625134Y-77724866D01*
X132399014Y-77539294D01*
X132381626Y-77530000D01*
X132399014Y-77520706D01*
X132625134Y-77335134D01*
X132810706Y-77109014D01*
X132948599Y-76851034D01*
X133033513Y-76571111D01*
X133062185Y-76280000D01*
X133033513Y-75988889D01*
X132948599Y-75708966D01*
X132810706Y-75450986D01*
X132625134Y-75224866D01*
X132399014Y-75039294D01*
X132373278Y-75025538D01*
X132579429Y-74869049D01*
X132772496Y-74651193D01*
X132919352Y-74399858D01*
X133011476Y-74136890D01*
X132890155Y-73907000D01*
X131572000Y-73907000D01*
X131572000Y-73927000D01*
X131318000Y-73927000D01*
X131318000Y-73907000D01*
X129999845Y-73907000D01*
X129878524Y-74136890D01*
X129970648Y-74399858D01*
X130117504Y-74651193D01*
X130310571Y-74869049D01*
X130516722Y-75025538D01*
X130490986Y-75039294D01*
X130264866Y-75224866D01*
X130079294Y-75450986D01*
X129941401Y-75708966D01*
X129856487Y-75988889D01*
X129827815Y-76280000D01*
X110837185Y-76280000D01*
X110808513Y-75988889D01*
X110723599Y-75708966D01*
X110585706Y-75450986D01*
X110400134Y-75224866D01*
X110174014Y-75039294D01*
X110148278Y-75025538D01*
X110354429Y-74869049D01*
X110547496Y-74651193D01*
X110694352Y-74399858D01*
X110786476Y-74136890D01*
X110665155Y-73907000D01*
X109347000Y-73907000D01*
X109347000Y-73927000D01*
X109093000Y-73927000D01*
X109093000Y-73907000D01*
X107774845Y-73907000D01*
X107653524Y-74136890D01*
X107745648Y-74399858D01*
X107892504Y-74651193D01*
X108085571Y-74869049D01*
X108291722Y-75025538D01*
X108265986Y-75039294D01*
X108039866Y-75224866D01*
X107854294Y-75450986D01*
X107716401Y-75708966D01*
X107631487Y-75988889D01*
X107602815Y-76280000D01*
X107086000Y-76280000D01*
X107086000Y-73423110D01*
X107653524Y-73423110D01*
X107774845Y-73653000D01*
X109093000Y-73653000D01*
X109093000Y-72453835D01*
X109347000Y-72453835D01*
X109347000Y-73653000D01*
X110665155Y-73653000D01*
X110786476Y-73423110D01*
X129878524Y-73423110D01*
X129999845Y-73653000D01*
X131318000Y-73653000D01*
X131318000Y-72453835D01*
X131572000Y-72453835D01*
X131572000Y-73653000D01*
X132890155Y-73653000D01*
X133011476Y-73423110D01*
X132919352Y-73160142D01*
X132772496Y-72908807D01*
X132579429Y-72690951D01*
X132347570Y-72514947D01*
X132085830Y-72387558D01*
X131804267Y-72313680D01*
X131572000Y-72453835D01*
X131318000Y-72453835D01*
X131085733Y-72313680D01*
X130804170Y-72387558D01*
X130542430Y-72514947D01*
X130310571Y-72690951D01*
X130117504Y-72908807D01*
X129970648Y-73160142D01*
X129878524Y-73423110D01*
X110786476Y-73423110D01*
X110694352Y-73160142D01*
X110547496Y-72908807D01*
X110354429Y-72690951D01*
X110122570Y-72514947D01*
X109860830Y-72387558D01*
X109579267Y-72313680D01*
X109347000Y-72453835D01*
X109093000Y-72453835D01*
X108860733Y-72313680D01*
X108579170Y-72387558D01*
X108317430Y-72514947D01*
X108085571Y-72690951D01*
X107892504Y-72908807D01*
X107745648Y-73160142D01*
X107653524Y-73423110D01*
X107086000Y-73423110D01*
X107086000Y-70002000D01*
X133985000Y-70002000D01*
X133985000Y-84963000D01*
%TD*%
M02*
